<?xml version="1.0" standalone="no"?>
<!DOCTYPE svg PUBLIC "-//W3C//DTD SVG 20010904//EN"
 "http://www.w3.org/TR/2001/REC-SVG-20010904/DTD/svg10.dtd">
<svg version="1.0" xmlns="http://www.w3.org/2000/svg"
 width="260.000000pt" height="260.000000pt" viewBox="0 0 260.000000 260.000000"
 preserveAspectRatio="xMidYMid meet">
<metadata>
Created by potrace 1.14, written by Peter Selinger 2001-2017
</metadata>
<g transform="translate(0.000000,260.000000) scale(0.100000,-0.100000)"
fill="#000000" stroke="none">
<path d="M253 2571 c-97 -33 -161 -89 -211 -185 l-27 -51 0 -1035 0 -1035 23
-47 c36 -71 93 -131 164 -169 l63 -34 1030 0 1030 0 57 27 c73 34 142 103 176
176 l27 57 0 1025 0 1025 -27 55 c-35 71 -107 143 -178 178 l-55 27 -1010 2
c-951 2 -1013 1 -1062 -16z m276 -499 c5 -10 96 -227 201 -483 105 -255 199
-472 207 -481 9 -10 29 -18 45 -18 16 0 168 59 336 131 170 73 320 131 336
131 30 -1 62 -24 71 -51 3 -9 18 -90 35 -180 16 -90 35 -170 41 -178 26 -30
55 -6 197 162 79 94 155 183 168 200 15 20 27 26 33 20 12 -12 -350 -762 -380
-787 -26 -22 -31 -22 -59 0 -16 13 -29 47 -49 132 -41 174 -9 175 -415 -5
-364 -160 -363 -160 -400 -103 -8 13 -98 349 -201 748 -103 399 -191 733 -197
743 -9 18 -3 37 12 37 5 0 14 -8 19 -18z m815 -54 c29 -26 136 -268 138 -310
2 -52 -24 -72 -174 -136 -79 -34 -153 -62 -165 -62 -41 0 -72 43 -133 187 -64
152 -67 174 -27 211 28 26 274 130 309 131 15 1 38 -9 52 -21z"/>
</g>
</svg>
